<svg xmlns="http://www.w3.org/2000/svg" viewBox="0 0 228 112">
    <g transform="translate(.01345)" fill="none" fill-rule="evenodd">
        <rect fill="#fff" x="219.98655" width="8" height="112" rx="4" />
        <g fill="#fff" fill-rule="nonzero">
            <path
                  d="M11.0732866 24.909091v61.0909091H0V24.909091zM33.4331963 59.1534092v26.8465909H22.6227826V40.1818183h10.333141v7.7794522h.5490501c1.0421697-2.5572621 2.7225674-4.5925848 5.0411932-6.1059681 2.3186257-1.5133834 5.1881658-2.270075 8.6086203-2.270075 3.1582032 0 5.9145619.6751265 8.2690763 2.0253795 2.3545144 1.350253 4.1840598 3.3090598 5.4886364 5.8764204 1.3045765 2.5673607 1.9528253 5.6846258 1.9448211 9.3517956v29.1611772H52.0468327V58.5092774c.0080788-3.0665394-.7813943-5.4638561-2.3684193-7.19195-1.587025-1.7280939-3.772583-2.5921409-6.5566739-2.5921409-1.8892046 0-3.562611.4096902-5.0202193 1.2290705s-2.5980447 2.0065807-3.421309 3.5616011c-.8232644 1.5550205-1.238936 3.4342041-1.2470149 5.6375511ZM73.8342715 103.1818183v-63h10.6197843v7.5645863h.6441317c.5490501-1.0974787 1.3316096-2.2796298 2.3476785-3.5464533 1.0160689-1.2668235 2.388228-2.3526501 4.1164773-3.2574796 1.7282492-.9048296 3.9406072-1.3572443 6.6370738-1.3572443 3.5239259 0 6.7156869.9008678 9.5752839 2.7026034 2.859597 1.8017356 5.128585 4.4565652 6.806963 7.9644886 1.678378 3.5079235 2.517567 7.8113792 2.517567 12.9103671 0 5.0272106-.823265 9.3017689-2.469793 12.823675-1.646529 3.5219061-3.893688 6.2065652-6.741478 8.0539773-2.847789 1.8474121-6.06938 2.7711181-9.6647725 2.7711181-2.625 0-4.8044988-.4364901-6.5384965-1.3094704-1.7339977-.8729803-3.1240234-1.932939-4.1700772-3.1798761-1.0460538-1.2469372-1.8515292-2.4312634-2.4164263-3.5529786h-.4535023v24.4126865H73.8342715Zm10.5960139-40.0909091c0 2.9671076.4215753 5.5652299 1.2647261 7.794367.8431507 2.2291371 2.0660844 3.9651545 3.668801 5.2080522 1.6027167 1.2428977 3.5536 1.8643466 5.8526501 1.8643466 2.3702059 0 4.3617165-.6413352 5.9745314-1.9240057 1.612815-1.2826705 2.833885-3.0445557 3.663208-5.2856556.829324-2.2411 1.243986-4.7934682 1.243986-7.6571045 0-2.8397106-.408681-5.3622492-1.226041-7.5676159-.817361-2.2053666-2.032449-3.9374223-3.645264-5.196167-1.6128152-1.2587446-3.6162887-1.888117-6.0104204-1.888117-2.3226652 0-4.2854337.6055243-5.8883057 1.8165727-1.602872 1.2110485-2.8199019 2.9132746-3.6510898 5.1066784-.8311878 2.1934038-1.2467817 4.76962-1.2467817 7.7286488ZM155.519671 66.742232V40.1818183h10.810413v45.8181818h-10.476229v-8.1374068h-.477273c-1.04217 2.5653409-2.740512 4.6623424-5.095026 6.2910045-2.354515 1.6286621-5.253962 2.4429932-8.698342 2.4429932-2.998802 0-5.64563-.6731845-7.940485-2.0195534-2.294856-1.346369-4.08859-3.3031561-5.381204-5.8703614-1.292613-2.5672052-1.94296-5.6884321-1.951038-9.3636807V40.1818183H137.1209v27.4907226c.008079 2.911488.804543 5.2223456 2.389393 6.9325728 1.58485 1.7102273 3.668025 2.5653409 6.249523 2.5653409 1.598677 0 3.144765-.385842 4.638262-1.1575262 1.493497-.7716841 2.722489-1.9290549 3.686978-3.4721124.964489-1.5430576 1.442693-3.4759189 1.434615-5.798584ZM200.287992 40.1818183v8.3522727h-26.321311v-8.3522727h26.321311Zm-19.830588-10.97727275h10.810413V72.2308683c0 1.4476652.21976 2.5522905.65928 3.3138761.43952.7615856 1.028109 1.2825928 1.765769 1.5630216.73766.2804288 1.559992.4206432 2.466997.4206432.664018 0 1.278476-.0507258 1.843373-.1521773.564897-.1014515 1.000377-.1860463 1.30644-.2537842l1.813544 8.4240501c-.580434.1948242-1.399659.4125643-2.457675.6532204-1.058017.2406561-2.35467.3808705-3.889959.4206432-2.704546.0795455-5.139616-.3341064-7.30521-1.2409557-2.165593-.9068492-3.879782-2.3107799-5.142567-4.211792-1.262784-1.901012-1.886252-4.2914151-1.870405-7.1712091V29.20454555Z" />
        </g>
    </g>
</svg>
