<svg xmlns="http://www.w3.org/2000/svg" viewBox="0 0 536 144"><g fill="none" fill-rule="evenodd"><path d="M187.873 107c9.943 0 17.45-2.099 22.52-6.296C215.466 96.506 218 90.604 218 83c0-5.926-2.361-10.74-7.084-14.444-4.723-3.704-10.813-6.84-18.27-9.408-2.287-.79-4.127-1.58-5.519-2.37-1.392-.79-2.088-1.482-2.088-2.074 0-.988.696-1.778 2.088-2.37 1.392-.593 3.182-.89 5.37-.89 2.584 0 5.443.396 8.575 1.186a60.75 60.75 0 019.172 3.11l7.607-17.036c-3.679-2.864-8.079-4.864-13.2-6-5.12-1.136-9.818-1.704-14.094-1.704-10.042 0-17.897 2.123-23.564 6.37-5.668 4.247-8.502 10.124-8.502 17.63 0 5.926 2.412 10.716 7.234 14.37 4.822 3.655 11.012 6.815 18.568 9.482 2.088.691 3.804 1.457 5.146 2.296 1.342.84 2.013 1.556 2.013 2.148 0 .988-.596 1.778-1.79 2.37-1.193.593-2.684.89-4.474.89-2.585 0-5.94-.494-10.067-1.482-4.126-.988-7.631-2.173-10.515-3.555L157 98.556c3.679 2.864 8.675 4.987 14.989 6.37S183.597 107 187.873 107zm66.15 1c9.07 0 18.828-3.25 29.277-9.749l7.688 7.386H304V34h-26.91v48.152c-2.366 1.083-4.978 2.043-7.837 2.88-2.859.837-5.077 1.255-6.654 1.255-2.76 0-4.731-.812-5.914-2.437-1.183-1.624-1.774-3.668-1.774-6.13V34H228v46.232c0 8.37 2.169 15.09 6.506 20.161 4.337 5.071 10.843 7.607 19.517 7.607zm92.141-3V62.69c3.085-2.375 6.766-4.304 11.045-5.789 4.279-1.485 8.209-2.227 11.791-2.227L363.478 33c-3.781 0-7.91.89-12.388 2.672s-8.458 3.86-11.94 6.235l-6.568-8.759H319V105h27.164zm78.487 1L453 33.684h-26.865l-13.803 40.855L397.935 31 373 38.157 399.122 106h25.53zm47.172 32c7.295-1.58 13.998-4.545 20.11-8.892 6.113-4.347 10.302-9.386 12.57-15.116L536 33.668h-26.765l-13.753 40.606L480.842 31 456 38.114l25.73 66.097-.591 1.63c-.69 1.877-2.637 3.68-5.841 5.409-3.204 1.729-7.37 3.68-12.496 5.854l9.02 20.896z" fill="#122033" fill-rule="nonzero"/><path d="M68 0c37.555 0 68 30.478 68 68.075s-30.445 68.076-68 68.076c-10.668 0-20.763-2.46-29.749-6.843-11.95 0-20.455 3.182-30.324 14.692-.543-5.524-.26-10.769.234-15.724l.146-1.408.076-.698.158-1.384.559-4.72.075-.658.143-1.305c.688-6.482.91-12.361-1.126-17.61C2.967 90.857 0 79.814 0 68.076 0 30.478 30.445 0 68 0zM29.5 58C23.701 58 19 62.701 19 68.5S23.701 79 29.5 79 40 74.299 40 68.5 35.299 58 29.5 58zm39 0C62.701 58 58 62.701 58 68.5S62.701 79 68.5 79 79 74.299 79 68.5 74.299 58 68.5 58zm37 0C99.701 58 95 62.701 95 68.5S99.701 79 105.5 79 116 74.299 116 68.5 111.299 58 105.5 58z" fill="#236FCD"/></g></svg>
