<svg xmlns="http://www.w3.org/2000/svg" viewBox="0 0 128 118"><path d="M64 0c35.346 0 64 25.188 64 56.258 0 31.07-28.654 56.258-64 56.258-10.907 0-21.177-2.398-30.164-6.628L.465 118l9.319-31.833C3.585 77.503 0 67.249 0 56.257 0 25.188 28.654 0 64 0ZM38 47c-5.523 0-10 4.477-10 10s4.477 10 10 10 10-4.477 10-10-4.477-10-10-10Zm26 0c-5.523 0-10 4.477-10 10s4.477 10 10 10 10-4.477 10-10-4.477-10-10-10Zm26 0c-5.523 0-10 4.477-10 10s4.477 10 10 10 10-4.477 10-10-4.477-10-10-10Z" fill="#236FCD" fill-rule="evenodd"/></svg>
