<?xml version="1.0" standalone="no"?>
<!DOCTYPE svg PUBLIC "-//W3C//DTD SVG 20010904//EN"
 "http://www.w3.org/TR/2001/REC-SVG-20010904/DTD/svg10.dtd">
<svg version="1.0" xmlns="http://www.w3.org/2000/svg"
 width="1024.000000pt" height="1024.000000pt" viewBox="0 0 1024.000000 1024.000000"
 preserveAspectRatio="xMidYMid meet">
<metadata>
Created by potrace 1.11, written by Peter Selinger 2001-2013
</metadata>
<g transform="translate(0.000000,1024.000000) scale(0.100000,-0.100000)"
fill="#000000" stroke="none">
<path d="M975 9549 c-159 -23 -339 -95 -482 -192 -74 -50 -222 -189 -253 -236
-8 -13 -20 -29 -26 -35 -6 -6 -32 -47 -58 -91 -53 -91 -97 -199 -128 -318
l-23 -82 -2 -1550 c-2 -1662 -3 -1625 48 -1790 113 -367 431 -672 794 -762 99
-24 139 -31 236 -38 24 -2 47 -4 51 -4 4 -1 7 -223 7 -494 -1 -413 2 -499 14
-528 39 -90 126 -128 217 -96 26 10 390 273 530 384 8 7 112 84 230 172 118
88 220 164 225 168 6 5 48 37 95 71 47 35 164 123 260 195 l175 132 1750 1
c1749 1 1750 1 1851 22 163 35 296 91 422 180 76 52 69 47 152 127 127 123
220 271 278 440 64 185 61 115 59 1820 -3 1710 1 1579 -66 1765 -81 222 -241
426 -434 553 -105 70 -167 101 -275 137 -88 29 -112 35 -212 50 -73 11 -5357
10 -5435 -1z m4178 -1233 c35 -15 52 -31 210 -195 114 -118 137 -155 137 -221
0 -58 -27 -103 -121 -200 -85 -88 -466 -484 -554 -575 -166 -173 -456 -475
-490 -510 -219 -227 -501 -520 -590 -613 -307 -321 -312 -324 -393 -315 -56 6
-82 26 -207 155 -224 232 -523 543 -585 608 -34 36 -142 148 -240 250 -237
246 -225 229 -225 315 0 84 -6 75 167 254 149 154 174 173 232 173 60 0 100
-23 176 -102 36 -37 153 -159 260 -271 107 -111 250 -259 317 -328 l123 -126
66 70 c37 39 126 131 198 206 127 131 483 502 596 619 30 31 143 149 250 260
507 528 521 543 546 546 9 1 18 5 22 8 10 11 72 6 105 -8z"/>
<path d="M7959 6308 c0 -337 -2 -629 -4 -648 -2 -19 -7 -62 -10 -95 -9 -83
-47 -243 -84 -347 -147 -413 -460 -764 -856 -957 -105 -51 -310 -125 -379
-135 -21 -4 -41 -8 -45 -10 -3 -2 -31 -7 -61 -11 -30 -4 -68 -9 -85 -12 -16
-2 -703 -6 -1525 -8 -822 -1 -1498 -3 -1503 -4 -4 -1 -7 -279 -6 -618 0 -483
4 -635 15 -698 74 -421 367 -761 773 -894 170 -56 138 -54 1411 -55 709 -1
1181 -5 1190 -11 16 -10 925 -687 950 -708 59 -48 525 -389 549 -401 80 -42
197 8 230 97 7 19 11 198 11 523 0 272 3 495 8 495 4 1 156 2 337 4 182 1 350
5 374 9 362 52 669 263 855 588 42 75 93 217 115 319 18 91 19 149 19 1629 0
1644 1 1604 -49 1760 -76 234 -235 453 -429 590 -132 94 -328 173 -495 199
-33 5 -340 10 -682 10 l-623 2 -1 -613z m1273 28 c213 -54 373 -215 422 -426
14 -57 16 -252 15 -1550 0 -1389 -1 -1489 -18 -1550 -59 -216 -235 -379 -449
-418 -29 -5 -303 -10 -610 -10 -306 0 -574 -1 -594 -1 l-38 -1 0 -365 c0 -201
-2 -365 -5 -365 -5 0 -79 54 -135 97 -8 6 -190 143 -405 303 -214 160 -401
299 -415 310 -13 11 -36 20 -50 21 -14 0 -585 1 -1270 3 -1332 3 -1265 0
-1380 54 -126 59 -217 150 -275 277 -51 109 -55 147 -55 489 l0 312 1173 0
c1022 0 1322 4 1397 19 10 2 40 7 67 11 26 3 57 8 68 11 11 2 42 8 68 13 59
12 253 68 276 80 9 5 47 20 84 34 535 204 1011 667 1240 1207 74 173 142 407
161 554 24 186 23 162 25 562 l1 342 33 3 c17 2 161 2 319 1 224 -1 301 -5
350 -17z"/>
</g>
</svg>
