<?xml version="1.0" standalone="no"?>
<!DOCTYPE svg PUBLIC "-//W3C//DTD SVG 20010904//EN"
 "http://www.w3.org/TR/2001/REC-SVG-20010904/DTD/svg10.dtd">
<svg version="1.0" xmlns="http://www.w3.org/2000/svg"
 width="512.000000pt" height="512.000000pt" viewBox="0 0 512.000000 512.000000"
 preserveAspectRatio="xMidYMid meet">
<metadata>
Created by potrace 1.14, written by Peter Selinger 2001-2017
</metadata>
<g transform="translate(0.000000,512.000000) scale(0.100000,-0.100000)"
fill="#000000" stroke="none">
<path d="M1596 5109 c-357 -38 -727 -203 -996 -446 -336 -303 -544 -710 -590
-1153 -13 -125 -13 -1775 0 -1900 23 -219 79 -409 181 -615 272 -550 808 -922
1419 -985 125 -13 1775 -13 1900 0 219 23 409 79 615 181 550 272 922 808 985
1419 13 125 13 1775 0 1900 -23 219 -79 409 -181 615 -272 550 -808 922 -1419
985 -115 12 -1800 11 -1914 -1z m2624 -2554 l0 -1765 -190 0 -190 0 0 1739 0
1738 118 18 c64 10 135 21 157 25 22 4 55 8 73 9 l32 1 0 -1765z m-2950 1179
c85 -46 130 -123 130 -221 -1 -175 -162 -292 -334 -241 -55 16 -140 101 -155
154 -28 101 0 214 67 278 73 69 197 81 292 30z m1713 -683 c96 -25 128 -42
190 -100 63 -58 110 -130 137 -212 46 -135 50 -197 50 -821 l0 -588 -225 0
-225 0 0 553 c0 597 -2 623 -54 711 -17 29 -44 55 -74 73 -42 25 -56 28 -132
27 -108 -1 -202 -37 -342 -130 l-98 -65 0 -585 0 -584 -225 0 -225 0 0 845 0
845 148 0 147 0 38 -89 39 -89 51 32 c119 76 287 148 412 176 113 26 288 26
388 1z m-1603 -876 l0 -845 -230 0 -230 0 0 845 0 845 230 0 230 0 0 -845z"/>
</g>
</svg>
