<?xml version="1.0" standalone="no"?>
<!DOCTYPE svg PUBLIC "-//W3C//DTD SVG 20010904//EN"
 "http://www.w3.org/TR/2001/REC-SVG-20010904/DTD/svg10.dtd">
<svg version="1.0" xmlns="http://www.w3.org/2000/svg"
 width="512.000000pt" height="512.000000pt" viewBox="0 0 512.000000 512.000000"
 preserveAspectRatio="xMidYMid meet">
<metadata>
Created by potrace 1.14, written by Peter Selinger 2001-2017
</metadata>
<g transform="translate(0.000000,512.000000) scale(0.100000,-0.100000)"
fill="#000000" stroke="none">
<path d="M2873 5100 c-46 -5 -120 -16 -165 -25 -83 -17 -1476 -439 -1618 -490
-328 -119 -635 -371 -827 -680 -224 -359 -303 -810 -214 -1216 21 -91 428
-1432 482 -1585 119 -338 369 -645 684 -841 360 -225 810 -303 1218 -213 91
20 1428 426 1583 481 338 119 645 369 841 684 225 360 303 810 213 1218 -20
91 -426 1428 -481 1583 -126 358 -397 678 -745 878 -97 56 -269 126 -379 155
-182 48 -423 69 -592 51z m1227 -2545 l0 -1635 -177 2 -178 3 -3 1608 c-1 884
1 1607 5 1608 5 0 71 11 148 23 77 13 155 24 173 25 l32 1 0 -1635z m-2776
1113 c26 -8 60 -31 92 -63 43 -42 54 -61 64 -107 34 -151 -73 -288 -224 -288
-77 0 -131 24 -177 79 -96 112 -68 294 56 358 65 34 122 41 189 21z m1630
-653 c163 -43 271 -161 323 -356 15 -56 17 -136 20 -651 l4 -588 -210 0 -210
0 -3 543 -3 542 -24 53 c-77 170 -263 174 -518 10 l-93 -60 0 -544 0 -544
-210 0 -210 0 0 785 0 786 137 -3 136 -3 35 -83 35 -82 26 17 c144 95 327 167
486 194 66 10 208 2 279 -16z m-1489 -810 l0 -780 -207 -3 -208 -2 0 785 0
785 208 -2 207 -3 0 -780z"/>
</g>
</svg>
